<?xml version="1.0" encoding="UTF-8" standalone="no"?>
<svg
   xmlns:dc="http://purl.org/dc/elements/1.1/"
   xmlns:cc="http://creativecommons.org/ns#"
   xmlns:rdf="http://www.w3.org/1999/02/22-rdf-syntax-ns#"
   xmlns:svg="http://www.w3.org/2000/svg"
   xmlns="http://www.w3.org/2000/svg"
   xmlns:xlink="http://www.w3.org/1999/xlink"
   xmlns:sodipodi="http://sodipodi.sourceforge.net/DTD/sodipodi-0.dtd"
   xmlns:inkscape="http://www.inkscape.org/namespaces/inkscape"
   height="32"
   width="32"
   version="1.1"
   id="svg25"
   sodipodi:docname="folder-games.svg"
   inkscape:version="0.92.4 (5da689c313, 2019-01-14)">
  <metadata
     id="metadata31">
    <rdf:RDF>
      <cc:Work
         rdf:about="">
        <dc:format>image/svg+xml</dc:format>
        <dc:type
           rdf:resource="http://purl.org/dc/dcmitype/StillImage" />
      </cc:Work>
    </rdf:RDF>
  </metadata>
  <defs
     id="defs29">
    <linearGradient
       inkscape:collect="always"
       id="linearGradient890">
      <stop
         style="stop-color:#8f267c;stop-opacity:1"
         offset="0"
         id="stop886" />
      <stop
         style="stop-color:#d88d00;stop-opacity:1"
         offset="1"
         id="stop888" />
    </linearGradient>
    <linearGradient
       gradientTransform="translate(36.40678,4.1355933)"
       x1="0.54237288"
       y2="18.305084"
       y1="18.694916"
       x2="30.779661"
       gradientUnits="userSpaceOnUse"
       id="a">
      <stop
         style="stop-color:#8f267c;stop-opacity:1"
         id="stop873"
         stop-color="#3daee9"
         offset="0" />
      <stop
         style="stop-color:#d88d00;stop-opacity:1"
         id="stop875"
         stop-color="#6cc1ef"
         offset="1" />
    </linearGradient>
    <linearGradient
       inkscape:collect="always"
       id="linearGradient851-7">
      <stop
         style="stop-color:#8f267c;stop-opacity:1"
         offset="0"
         id="stop847" />
      <stop
         style="stop-color:#d88d00;stop-opacity:1"
         offset="1"
         id="stop849" />
    </linearGradient>
    <linearGradient
       inkscape:collect="always"
       id="linearGradient866-6">
      <stop
         style="stop-color:#8f267c;stop-opacity:1"
         offset="0"
         id="stop862" />
      <stop
         style="stop-color:#d88d00;stop-opacity:1"
         offset="1"
         id="stop864" />
    </linearGradient>
    <linearGradient
       inkscape:collect="always"
       id="linearGradient842">
      <stop
         style="stop-color:#d88d00;stop-opacity:1"
         offset="0"
         id="stop838" />
      <stop
         style="stop-color:#8f267c;stop-opacity:1"
         offset="1"
         id="stop840" />
    </linearGradient>
    <linearGradient
       inkscape:collect="always"
       xlink:href="#linearGradient842"
       id="linearGradient844"
       x1="2"
       y1="7"
       x2="30"
       y2="7"
       gradientUnits="userSpaceOnUse" />
    <linearGradient
       inkscape:collect="always"
       xlink:href="#linearGradient866-6"
       id="linearGradient868"
       x1="2"
       y1="9"
       x2="13"
       y2="9"
       gradientUnits="userSpaceOnUse" />
    <linearGradient
       inkscape:collect="always"
       xlink:href="#linearGradient851-7"
       id="linearGradient853"
       x1="1"
       y1="16"
       x2="31"
       y2="16"
       gradientUnits="userSpaceOnUse" />
    <linearGradient
       inkscape:collect="always"
       xlink:href="#linearGradient890"
       id="linearGradient892"
       x1="1"
       y1="18.5"
       x2="31"
       y2="18.5"
       gradientUnits="userSpaceOnUse" />
    <linearGradient
       inkscape:collect="always"
       xlink:href="#linearGradient851-7"
       id="linearGradient899"
       gradientUnits="userSpaceOnUse"
       x1="1"
       y1="16"
       x2="31"
       y2="16" />
  </defs>
  <sodipodi:namedview
     pagecolor="#ffffff"
     bordercolor="#666666"
     borderopacity="1"
     objecttolerance="10"
     gridtolerance="10"
     guidetolerance="10"
     inkscape:pageopacity="0"
     inkscape:pageshadow="2"
     inkscape:window-width="1920"
     inkscape:window-height="1033"
     id="namedview27"
     showgrid="false"
     inkscape:zoom="14.75"
     inkscape:cx="32.250241"
     inkscape:cy="11.457939"
     inkscape:window-x="0"
     inkscape:window-y="0"
     inkscape:window-maximized="1"
     inkscape:current-layer="svg25" />
  <linearGradient
     id="a-3"
     gradientUnits="userSpaceOnUse"
     x2="30.779661"
     y1="18.694916"
     y2="18.305084"
     x1="0.54237288"
     gradientTransform="translate(36.40678,4.1355933)"
     xlink:href="#a">
    <stop
       offset="0"
       stop-color="#3daee9"
       id="stop2"
       style="stop-color:#8f267c;stop-opacity:1" />
    <stop
       offset="1"
       stop-color="#6cc1ef"
       id="stop4"
       style="stop-color:#d88d00;stop-opacity:1" />
  </linearGradient>
  <path
     d="m 2,3 v 8 H 30 V 5 H 16 L 14,3 Z"
     id="path7"
     style="fill:url(#linearGradient844);fill-opacity:1.0;fill-rule:evenodd"
     inkscape:connector-curvature="0" />
  <path
     d="M 13,8 11,9 H 2.0000004 v 1 H 12 Z"
     id="path9"
     style="fill:url(#linearGradient868);fill-opacity:1;fill-rule:evenodd"
     inkscape:connector-curvature="0" />
  <path
     d="m 13,8 -2,2 H 1 V 29 H 31 V 8 Z"
     id="path11"
     style="fill:url(#linearGradient892);fill-opacity:1"
     inkscape:connector-curvature="0" />
  <g
     fill-opacity=".235"
     id="g17"
     style="fill-opacity:1;fill:url(#linearGradient853)">
    <path
       d="m 13,8 -2,2 H 1 v 1 h 11 z m 1,-5 1,3 H 30 V 5 H 16 Z"
       id="path13"
       inkscape:connector-curvature="0"
       style="fill:url(#linearGradient899);fill-opacity:1;fill-rule:evenodd" />
    <path
       d="m1 28h30v1h-30z"
       id="path15"
       style="fill:url(#linearGradient853);fill-opacity:1" />
  </g>
  <g
     id="g23"
     style="fill:#8f267c;fill-opacity:1"
     transform="translate(-0.20338967,0.27118645)">
    <path
       d="m 13,17 v 1 h -1 v 1 h 1 v 1 h 1 v -1 h 1 v -1 h -1 v -1 z m 5.5,-0.1 a 0.6,0.6 0 0 0 -0.6,0.6 0.6,0.6 0 0 0 0.6,0.6 0.6,0.6 0 0 0 0.6,-0.6 0.6,0.6 0 0 0 -0.6,-0.6 z m -1,1 a 0.6,0.6 0 0 0 -0.6,0.6 0.6,0.6 0 0 0 0.6,0.6 0.6,0.6 0 0 0 0.6,-0.6 0.6,0.6 0 0 0 -0.6,-0.6 z m 2,0 a 0.6,0.6 0 0 0 -0.6,0.6 0.6,0.6 0 0 0 0.6,0.6 0.6,0.6 0 0 0 0.6,-0.6 0.6,0.6 0 0 0 -0.6,-0.6 z m -1,1 a 0.6,0.6 0 0 0 -0.6,0.6 0.6,0.6 0 0 0 0.6,0.6 0.6,0.6 0 0 0 0.6,-0.6 0.6,0.6 0 0 0 -0.6,-0.6 z"
       id="path19"
       style="fill:#8f267c;fill-opacity:1"
       inkscape:connector-curvature="0" />
    <path
       d="m 12,15 a 2,4 0 0 0 -2,4 v 2.5 a 1.5,1.5 0 0 0 2.56,1.06 l 0.944,-0.943 A 1.5,1.5 0 0 0 14.5,22 1.5,1.5 0 0 0 16,20.5 a 1.5,1.5 0 0 0 2.498,1.12 l 0.941,0.94 A 1.5,1.5 0 0 0 22,21.5 V 19 a 2,4 0 0 0 -2,-4 z m 0,1 h 8 a 1,3 0 0 1 1,3 v 2.5 a 0.5,0.5 0 0 1 -0.854,0.354 L 18.293,20 H 18 v 0.5 a 0.5,0.5 0 0 1 -1,0 V 20 h -2 v 0.5 a 0.5,0.5 0 0 1 -1,0 V 20 h -0.293 l -1.853,1.854 A 0.5,0.5 0 0 1 11,21.5 V 19 a 1,3 0 0 1 1,-3 z"
       id="path21"
       style="fill:#8f267c;fill-opacity:1"
       inkscape:connector-curvature="0" />
  </g>
</svg>
