<?xml version="1.0" encoding="UTF-8" standalone="no"?>
<svg
   xmlns:dc="http://purl.org/dc/elements/1.1/"
   xmlns:cc="http://creativecommons.org/ns#"
   xmlns:rdf="http://www.w3.org/1999/02/22-rdf-syntax-ns#"
   xmlns:svg="http://www.w3.org/2000/svg"
   xmlns="http://www.w3.org/2000/svg"
   xmlns:xlink="http://www.w3.org/1999/xlink"
   xmlns:sodipodi="http://sodipodi.sourceforge.net/DTD/sodipodi-0.dtd"
   xmlns:inkscape="http://www.inkscape.org/namespaces/inkscape"
   height="64"
   width="64"
   version="1.1"
   id="svg27"
   sodipodi:docname="folder-games.svg"
   inkscape:version="0.92.4 (5da689c313, 2019-01-14)">
  <metadata
     id="metadata33">
    <rdf:RDF>
      <cc:Work
         rdf:about="">
        <dc:format>image/svg+xml</dc:format>
        <dc:type
           rdf:resource="http://purl.org/dc/dcmitype/StillImage" />
      </cc:Work>
    </rdf:RDF>
  </metadata>
  <defs
     id="defs31">
    <linearGradient
       inkscape:collect="always"
       id="linearGradient871">
      <stop
         style="stop-color:#d88d00;stop-opacity:1"
         offset="0"
         id="stop867" />
      <stop
         style="stop-color:#8f267c;stop-opacity:1"
         offset="1"
         id="stop869" />
    </linearGradient>
    <linearGradient
       inkscape:collect="always"
       id="linearGradient863">
      <stop
         style="stop-color:#8f267c;stop-opacity:1"
         offset="0"
         id="stop859" />
      <stop
         style="stop-color:#d88d00;stop-opacity:1"
         offset="1"
         id="stop861" />
    </linearGradient>
    <linearGradient
       id="linearGradient857"
       inkscape:collect="always">
      <stop
         id="stop853"
         offset="0"
         style="stop-color:#8f267c;stop-opacity:1" />
      <stop
         id="stop855"
         offset="1"
         style="stop-color:#d88d00;stop-opacity:1" />
    </linearGradient>
    <linearGradient
       inkscape:collect="always"
       id="linearGradient847">
      <stop
         style="stop-color:#147eb8;stop-opacity:1;"
         offset="0"
         id="stop843" />
      <stop
         style="stop-color:#147eb8;stop-opacity:0;"
         offset="1"
         id="stop845" />
    </linearGradient>
    <linearGradient
       inkscape:collect="always"
       xlink:href="#linearGradient847"
       id="linearGradient849"
       x1="21"
       y1="37.499871"
       x2="43"
       y2="37.499871"
       gradientUnits="userSpaceOnUse" />
    <linearGradient
       inkscape:collect="always"
       xlink:href="#linearGradient857"
       id="linearGradient851"
       x1="3"
       y1="32"
       x2="61"
       y2="32"
       gradientUnits="userSpaceOnUse" />
    <linearGradient
       inkscape:collect="always"
       xlink:href="#linearGradient863"
       id="linearGradient865"
       x1="2.999999"
       y1="37"
       x2="61"
       y2="37"
       gradientUnits="userSpaceOnUse"
       gradientTransform="translate(0.95878743,-0.446495)" />
    <linearGradient
       inkscape:collect="always"
       xlink:href="#linearGradient871"
       id="linearGradient873"
       x1="4"
       y1="20"
       x2="60"
       y2="20"
       gradientUnits="userSpaceOnUse"
       gradientTransform="translate(0.95878821,-0.44649429)" />
    <linearGradient
       inkscape:collect="always"
       xlink:href="#linearGradient857"
       id="linearGradient843"
       gradientUnits="userSpaceOnUse"
       x1="3"
       y1="32"
       x2="61"
       y2="32" />
    <linearGradient
       inkscape:collect="always"
       xlink:href="#linearGradient863"
       id="linearGradient848"
       x1="4"
       y1="18"
       x2="26"
       y2="18"
       gradientUnits="userSpaceOnUse" />
    <linearGradient
       inkscape:collect="always"
       xlink:href="#linearGradient857"
       id="linearGradient856"
       x1="3"
       y1="18.5"
       x2="26"
       y2="18.5"
       gradientUnits="userSpaceOnUse" />
  </defs>
  <sodipodi:namedview
     pagecolor="#ffffff"
     bordercolor="#666666"
     borderopacity="1"
     objecttolerance="10"
     gridtolerance="10"
     guidetolerance="10"
     inkscape:pageopacity="0"
     inkscape:pageshadow="2"
     inkscape:window-width="1920"
     inkscape:window-height="1033"
     id="namedview29"
     showgrid="false"
     inkscape:zoom="7.375"
     inkscape:cx="29.491526"
     inkscape:cy="32.859666"
     inkscape:window-x="0"
     inkscape:window-y="0"
     inkscape:window-maximized="1"
     inkscape:current-layer="svg27"
     showguides="false" />
  <linearGradient
     id="a"
     gradientTransform="matrix(1,0,0,0.99967,-384.571,-483.622)"
     gradientUnits="userSpaceOnUse"
     x2="0"
     y1="541.798"
     y2="499.784">
    <stop
       offset="0"
       stop-color="#3daee9"
       id="stop2" />
    <stop
       offset="1"
       stop-color="#6cc1ef"
       id="stop4" />
  </linearGradient>
  <path
     d="M 4.9587882,5.5535057 V 32.553505 c 0,0.554 0.446,1 1,1 H 59.958788 c 0.554,0 1,-0.446 1,-1 V 10.563506 l -0.002,-0.01 h 0.002 V 9.5535057 h -28 l -4,-4 z"
     id="path7"
     inkscape:connector-curvature="0"
     style="fill:url(#linearGradient873);fill-opacity:1" />
  <path
     d="m 26.958788,15.553506 -4,4 H 3.9587864 v 1 h 0.002 l -0.002,0.012 v 36.988 H 61.958788 v -42 z"
     id="path9"
     style="fill:url(#linearGradient865);fill-opacity:1"
     inkscape:connector-curvature="0" />
  <g
     id="g19"
     style="fill:url(#linearGradient851);fill-opacity:1"
     transform="translate(0.95878843,-0.4464943)">
    <path
       d="m 3,20 v 1 h 20 l 3,-5 -4,4 z"
       id="path11"
       style="fill:url(#linearGradient856);fill-opacity:1;fill-rule:evenodd"
       inkscape:connector-curvature="0" />
    <path
       d="m 4,19 v 1 h 18 l 4,-4 -6,3 z"
       id="path13"
       style="fill:url(#linearGradient848);fill-opacity:1;fill-rule:evenodd"
       inkscape:connector-curvature="0" />
    <path
       d="m 3,57 v 1 H 61 V 57 H 4 Z"
       id="path15"
       style="fill:url(#linearGradient843);fill-opacity:1"
       inkscape:connector-curvature="0" />
    <path
       d="m 28,6 3,5 H 60 V 10 H 32 Z"
       id="path17"
       style="fill:#d88d00;fill-opacity:1;fill-rule:evenodd;opacity:0.43"
       inkscape:connector-curvature="0" />
  </g>
  <g
     id="g25"
     style="fill:url(#linearGradient849);fill-opacity:1"
     transform="translate(-4.2372882e-7,-0.54237319)">
    <path
       d="m 25,30 c -2.21,0 -4,2.685 -4,5.999 v 6.998 c 0,1.78 2.154,2.673 3.414,1.413 l 2.414,-2.413 h 0.676 a 2.5,2.5 0 0 0 1.996,1 2.5,2.5 0 0 0 1.992,-1 h 0.906 a 2.5,2.5 0 0 0 1.997,1 2.5,2.5 0 0 0 1.992,-1 h 0.785 l 2.414,2.413 C 40.846,45.67 43,44.777 43,42.997 V 35.999 C 43,32.685 41.21,30 39,30 Z m 0,1 h 14 c 1.657,0 3,2.238 3,4.999 v 6.998 c 0,0.89 -1.077,1.336 -1.707,0.707 l -2.707,-2.707 h -1.779 a 1.5,1.5 0 0 1 -1.412,1 A 1.5,1.5 0 0 1 33,41.042 v -0.045 h -2.088 a 1.5,1.5 0 0 1 -1.412,1 1.5,1.5 0 0 1 -1.412,-1 h -1.674 l -2.707,2.707 C 23.077,44.334 22,43.888 22,42.997 v -6.998 c 0,-2.76 1.343,-5 3,-5 z"
       id="path21"
       style="fill:#8f267c;fill-opacity:1"
       inkscape:connector-curvature="0" />
    <path
       d="m 25,31.996 v 2 h -2 v 2 h 2 v 2 h 2 v -2 h 2 v -2 h -2 v -2 z m 11,7.5 a 1.5,1.5 0 0 1 -1.5,1.5 1.5,1.5 0 0 1 -1.5,-1.5 1.5,1.5 0 0 1 1.5,-1.5 1.5,1.5 0 0 1 1.5,1.5 z m -5,0 a 1.5,1.5 0 0 1 -1.5,1.5 1.5,1.5 0 0 1 -1.5,-1.5 1.5,1.5 0 0 1 1.5,-1.5 1.5,1.5 0 0 1 1.5,1.5 z m 8,-2.5 a 1,1 0 0 1 -1,1 1,1 0 0 1 -1,-1 1,1 0 0 1 1,-1 1,1 0 0 1 1,1 z m 2,-2 a 1,1 0 0 1 -1,1 1,1 0 0 1 -1,-1 1,1 0 0 1 1,-1 1,1 0 0 1 1,1 z m -2,-2 a 1,1 0 0 1 -1,1 1,1 0 0 1 -1,-1 1,1 0 0 1 1,-1 1,1 0 0 1 1,1 z m -2,2 a 1,1 0 0 1 -1,1 1,1 0 0 1 -1,-1 1,1 0 0 1 1,-1 1,1 0 0 1 1,1 z"
       id="path23"
       style="fill:#8f267c;fill-opacity:1"
       inkscape:connector-curvature="0" />
  </g>
</svg>
